<mxfile host="app.diagrams.net" modified="2023-12-28T01:06:11.131Z" agent="Mozilla/5.0 (Windows NT 10.0; Win64; x64; rv:121.0) Gecko/20100101 Firefox/121.0" etag="WLzXzT8KatxUzyV-RC0-" version="22.1.15" type="device">
  <diagram id="oMDY72YzOnIo3sY7O1gu" name="Page-1">
    <mxGraphModel dx="1304" dy="685" grid="1" gridSize="10" guides="1" tooltips="1" connect="1" arrows="1" fold="1" page="1" pageScale="1" pageWidth="827" pageHeight="1169" math="0" shadow="0">
      <root>
        <mxCell id="0" />
        <mxCell id="1" parent="0" />
        <mxCell id="nkOG_SdZaLz4jP4w542h-43" value="" style="group" parent="1" vertex="1" connectable="0">
          <mxGeometry x="60" y="250" width="210" height="140" as="geometry" />
        </mxCell>
        <mxCell id="nkOG_SdZaLz4jP4w542h-44" value="&lt;div&gt;&lt;br&gt;&lt;/div&gt;&lt;div&gt;&lt;br&gt;&lt;/div&gt;&lt;div&gt;&lt;br&gt;&lt;/div&gt;&lt;div&gt;&lt;br&gt;&lt;/div&gt;&lt;div&gt;Book with pages out of order&lt;br&gt;&lt;/div&gt;" style="rounded=1;whiteSpace=wrap;html=1;fillColor=#fff2cc;strokeColor=#d6b656;labelPosition=center;verticalLabelPosition=top;align=center;verticalAlign=bottom;horizontal=1;spacingTop=-49;spacing=-30;" parent="nkOG_SdZaLz4jP4w542h-43" vertex="1">
          <mxGeometry width="210" height="140" as="geometry" />
        </mxCell>
        <mxCell id="nkOG_SdZaLz4jP4w542h-45" value="" style="rounded=0;whiteSpace=wrap;html=1;fillColor=#FFDF80;" parent="nkOG_SdZaLz4jP4w542h-43" vertex="1">
          <mxGeometry x="38" y="50" width="10" height="75" as="geometry" />
        </mxCell>
        <mxCell id="nkOG_SdZaLz4jP4w542h-46" value="" style="rounded=0;whiteSpace=wrap;html=1;fillColor=#FFD366;" parent="nkOG_SdZaLz4jP4w542h-43" vertex="1">
          <mxGeometry x="10" y="50" width="10" height="75" as="geometry" />
        </mxCell>
        <mxCell id="nkOG_SdZaLz4jP4w542h-47" value="" style="rounded=0;whiteSpace=wrap;html=1;fillColor=#FFC74D;" parent="nkOG_SdZaLz4jP4w542h-43" vertex="1">
          <mxGeometry x="52" y="50" width="10" height="75" as="geometry" />
        </mxCell>
        <mxCell id="nkOG_SdZaLz4jP4w542h-48" value="" style="rounded=0;whiteSpace=wrap;html=1;fillColor=#FFBB33;" parent="nkOG_SdZaLz4jP4w542h-43" vertex="1">
          <mxGeometry x="122" y="50" width="10" height="75" as="geometry" />
        </mxCell>
        <mxCell id="nkOG_SdZaLz4jP4w542h-49" value="" style="rounded=0;whiteSpace=wrap;html=1;gradientColor=none;fillColor=#FFAF1A;" parent="nkOG_SdZaLz4jP4w542h-43" vertex="1">
          <mxGeometry x="80" y="50" width="10" height="75" as="geometry" />
        </mxCell>
        <mxCell id="nkOG_SdZaLz4jP4w542h-50" value="" style="rounded=0;whiteSpace=wrap;html=1;fillColor=#FFA300;" parent="nkOG_SdZaLz4jP4w542h-43" vertex="1">
          <mxGeometry x="94" y="50" width="10" height="75" as="geometry" />
        </mxCell>
        <mxCell id="nkOG_SdZaLz4jP4w542h-51" value="" style="rounded=0;whiteSpace=wrap;html=1;fillColor=#FF9700;" parent="nkOG_SdZaLz4jP4w542h-43" vertex="1">
          <mxGeometry x="150" y="50" width="10" height="75" as="geometry" />
        </mxCell>
        <mxCell id="nkOG_SdZaLz4jP4w542h-52" value="" style="rounded=0;whiteSpace=wrap;html=1;fillColor=#FF8B00;" parent="nkOG_SdZaLz4jP4w542h-43" vertex="1">
          <mxGeometry x="178" y="50" width="10" height="75" as="geometry" />
        </mxCell>
        <mxCell id="nkOG_SdZaLz4jP4w542h-53" value="" style="rounded=0;whiteSpace=wrap;html=1;fillColor=#FF7F00;" parent="nkOG_SdZaLz4jP4w542h-43" vertex="1">
          <mxGeometry x="136" y="50" width="10" height="75" as="geometry" />
        </mxCell>
        <mxCell id="nkOG_SdZaLz4jP4w542h-54" value="" style="rounded=0;whiteSpace=wrap;html=1;fillColor=#FF7300;" parent="nkOG_SdZaLz4jP4w542h-43" vertex="1">
          <mxGeometry x="192" y="50" width="10" height="75" as="geometry" />
        </mxCell>
        <mxCell id="nkOG_SdZaLz4jP4w542h-55" value="" style="rounded=0;whiteSpace=wrap;html=1;fillColor=#FF6700;" parent="nkOG_SdZaLz4jP4w542h-43" vertex="1">
          <mxGeometry x="108" y="50" width="10" height="75" as="geometry" />
        </mxCell>
        <mxCell id="nkOG_SdZaLz4jP4w542h-56" value="" style="rounded=0;whiteSpace=wrap;html=1;fillColor=#FF5A00;" parent="nkOG_SdZaLz4jP4w542h-43" vertex="1">
          <mxGeometry x="24" y="50" width="10" height="75" as="geometry" />
        </mxCell>
        <mxCell id="nkOG_SdZaLz4jP4w542h-57" value="" style="rounded=0;whiteSpace=wrap;html=1;fillColor=#FF4500;" parent="nkOG_SdZaLz4jP4w542h-43" vertex="1">
          <mxGeometry x="66" y="50" width="10" height="75" as="geometry" />
        </mxCell>
        <mxCell id="nkOG_SdZaLz4jP4w542h-58" value="" style="rounded=0;whiteSpace=wrap;html=1;fillColor=#FFEB99;" parent="nkOG_SdZaLz4jP4w542h-43" vertex="1">
          <mxGeometry x="164" y="50" width="10" height="75" as="geometry" />
        </mxCell>
        <mxCell id="nrzJ3WGpr9i2r_ijk9tg-5" value="" style="curved=1;endArrow=classic;html=1;rounded=0;exitX=0.5;exitY=0;exitDx=0;exitDy=0;" edge="1" parent="nkOG_SdZaLz4jP4w542h-43" source="nkOG_SdZaLz4jP4w542h-46">
          <mxGeometry width="50" height="50" relative="1" as="geometry">
            <mxPoint x="16" y="50" as="sourcePoint" />
            <mxPoint x="260" y="-170" as="targetPoint" />
            <Array as="points">
              <mxPoint x="20" y="-170" />
            </Array>
          </mxGeometry>
        </mxCell>
        <mxCell id="nkOG_SdZaLz4jP4w542h-60" value="sssss" style="group" parent="1" vertex="1" connectable="0">
          <mxGeometry x="520" y="240" width="210" height="140" as="geometry" />
        </mxCell>
        <mxCell id="nkOG_SdZaLz4jP4w542h-61" value="&lt;div&gt;&lt;br&gt;&lt;/div&gt;&lt;div&gt;&lt;br&gt;&lt;/div&gt;&lt;div&gt;&lt;br&gt;&lt;/div&gt;&lt;div&gt;&lt;br&gt;&lt;/div&gt;&lt;div&gt;Book with reordered pages&lt;br&gt;&lt;/div&gt;" style="rounded=1;whiteSpace=wrap;html=1;fillColor=#fff2cc;strokeColor=#d6b656;labelPosition=center;verticalLabelPosition=top;align=center;verticalAlign=bottom;horizontal=1;spacingTop=-49;spacing=-30;" parent="nkOG_SdZaLz4jP4w542h-60" vertex="1">
          <mxGeometry width="210" height="140" as="geometry" />
        </mxCell>
        <mxCell id="nkOG_SdZaLz4jP4w542h-62" value="" style="rounded=0;whiteSpace=wrap;html=1;fillColor=#FFDF80;" parent="nkOG_SdZaLz4jP4w542h-60" vertex="1">
          <mxGeometry x="38" y="50" width="10" height="75" as="geometry" />
        </mxCell>
        <mxCell id="nkOG_SdZaLz4jP4w542h-63" value="" style="rounded=0;whiteSpace=wrap;html=1;fillColor=#FFD366;" parent="nkOG_SdZaLz4jP4w542h-60" vertex="1">
          <mxGeometry x="52" y="50" width="10" height="75" as="geometry" />
        </mxCell>
        <mxCell id="nkOG_SdZaLz4jP4w542h-64" value="" style="rounded=0;whiteSpace=wrap;html=1;fillColor=#FFC74D;" parent="nkOG_SdZaLz4jP4w542h-60" vertex="1">
          <mxGeometry x="24" y="50" width="10" height="75" as="geometry" />
        </mxCell>
        <mxCell id="nkOG_SdZaLz4jP4w542h-65" value="" style="rounded=0;whiteSpace=wrap;html=1;fillColor=#FFBB33;" parent="nkOG_SdZaLz4jP4w542h-60" vertex="1">
          <mxGeometry x="66" y="50" width="10" height="75" as="geometry" />
        </mxCell>
        <mxCell id="nkOG_SdZaLz4jP4w542h-66" value="" style="rounded=0;whiteSpace=wrap;html=1;gradientColor=none;fillColor=#FFAF1A;" parent="nkOG_SdZaLz4jP4w542h-60" vertex="1">
          <mxGeometry x="80" y="50" width="10" height="75" as="geometry" />
        </mxCell>
        <mxCell id="nkOG_SdZaLz4jP4w542h-67" value="" style="rounded=0;whiteSpace=wrap;html=1;fillColor=#FFA300;" parent="nkOG_SdZaLz4jP4w542h-60" vertex="1">
          <mxGeometry x="94" y="50" width="10" height="75" as="geometry" />
        </mxCell>
        <mxCell id="nkOG_SdZaLz4jP4w542h-68" value="" style="rounded=0;whiteSpace=wrap;html=1;fillColor=#FF9700;" parent="nkOG_SdZaLz4jP4w542h-60" vertex="1">
          <mxGeometry x="108" y="50" width="10" height="75" as="geometry" />
        </mxCell>
        <mxCell id="nkOG_SdZaLz4jP4w542h-69" value="" style="rounded=0;whiteSpace=wrap;html=1;fillColor=#FF8B00;" parent="nkOG_SdZaLz4jP4w542h-60" vertex="1">
          <mxGeometry x="136" y="50" width="10" height="75" as="geometry" />
        </mxCell>
        <mxCell id="nkOG_SdZaLz4jP4w542h-70" value="" style="rounded=0;whiteSpace=wrap;html=1;fillColor=#FF7F00;" parent="nkOG_SdZaLz4jP4w542h-60" vertex="1">
          <mxGeometry x="122" y="50" width="10" height="75" as="geometry" />
        </mxCell>
        <mxCell id="nkOG_SdZaLz4jP4w542h-71" value="" style="rounded=0;whiteSpace=wrap;html=1;fillColor=#FF7300;" parent="nkOG_SdZaLz4jP4w542h-60" vertex="1">
          <mxGeometry x="150" y="50" width="10" height="75" as="geometry" />
        </mxCell>
        <mxCell id="nkOG_SdZaLz4jP4w542h-72" value="" style="rounded=0;whiteSpace=wrap;html=1;fillColor=#FF6700;" parent="nkOG_SdZaLz4jP4w542h-60" vertex="1">
          <mxGeometry x="178" y="50" width="10" height="75" as="geometry" />
        </mxCell>
        <mxCell id="nkOG_SdZaLz4jP4w542h-73" value="" style="rounded=0;whiteSpace=wrap;html=1;fillColor=#FF5A00;" parent="nkOG_SdZaLz4jP4w542h-60" vertex="1">
          <mxGeometry x="164" y="50" width="10" height="75" as="geometry" />
        </mxCell>
        <mxCell id="nkOG_SdZaLz4jP4w542h-74" value="" style="rounded=0;whiteSpace=wrap;html=1;fillColor=#FF4500;" parent="nkOG_SdZaLz4jP4w542h-60" vertex="1">
          <mxGeometry x="192" y="50" width="10" height="75" as="geometry" />
        </mxCell>
        <mxCell id="nkOG_SdZaLz4jP4w542h-75" value="" style="rounded=0;whiteSpace=wrap;html=1;fillColor=#FFEB99;" parent="nkOG_SdZaLz4jP4w542h-60" vertex="1">
          <mxGeometry x="10" y="50" width="10" height="75" as="geometry" />
        </mxCell>
        <mxCell id="FTEro6uut2QmCMIrPueT-10" style="edgeStyle=orthogonalEdgeStyle;rounded=0;orthogonalLoop=1;jettySize=auto;html=1;entryX=0;entryY=0.5;entryDx=0;entryDy=0;exitX=1;exitY=0.5;exitDx=0;exitDy=0;" parent="1" source="FTEro6uut2QmCMIrPueT-8" target="FTEro6uut2QmCMIrPueT-9" edge="1">
          <mxGeometry relative="1" as="geometry">
            <mxPoint x="300" y="738" as="sourcePoint" />
            <mxPoint x="360" y="738" as="targetPoint" />
          </mxGeometry>
        </mxCell>
        <mxCell id="FTEro6uut2QmCMIrPueT-11" value="5 swaps" style="edgeLabel;html=1;align=center;verticalAlign=bottom;resizable=0;points=[];fontSize=20;labelBackgroundColor=none;" parent="FTEro6uut2QmCMIrPueT-10" vertex="1" connectable="0">
          <mxGeometry relative="1" as="geometry">
            <mxPoint as="offset" />
          </mxGeometry>
        </mxCell>
        <mxCell id="FTEro6uut2QmCMIrPueT-8" value="&lt;div style=&quot;font-size: 20px;&quot;&gt;&lt;font style=&quot;font-size: 20px;&quot;&gt;(1 2 5 3 4 6 7 10 9 8)&lt;br&gt;&lt;/font&gt;&lt;/div&gt;" style="text;html=1;strokeColor=none;fillColor=none;spacing=5;spacingTop=-20;whiteSpace=wrap;overflow=hidden;rounded=0;align=center;verticalAlign=middle;labelPosition=center;verticalLabelPosition=middle;" parent="1" vertex="1">
          <mxGeometry x="90" y="715" width="210" height="60" as="geometry" />
        </mxCell>
        <mxCell id="FTEro6uut2QmCMIrPueT-9" value="&lt;div style=&quot;font-size: 20px;&quot;&gt;&lt;font style=&quot;font-size: 20px;&quot;&gt;(1 2 3 4 5 6 7 8 9 10)&lt;br&gt;&lt;/font&gt;&lt;/div&gt;" style="text;html=1;strokeColor=none;fillColor=none;spacing=5;spacingTop=-20;whiteSpace=wrap;overflow=hidden;rounded=0;align=center;verticalAlign=middle;labelPosition=center;verticalLabelPosition=middle;" parent="1" vertex="1">
          <mxGeometry x="440" y="715" width="210" height="60" as="geometry" />
        </mxCell>
        <mxCell id="FTEro6uut2QmCMIrPueT-18" value="" style="curved=1;endArrow=classic;html=1;rounded=0;startArrow=classic;startFill=1;entryX=0.424;entryY=0.05;entryDx=0;entryDy=0;entryPerimeter=0;exitX=0.333;exitY=0.05;exitDx=0;exitDy=0;exitPerimeter=0;fillColor=#fff2cc;strokeColor=#d6b656;" parent="1" edge="1">
          <mxGeometry width="50" height="50" relative="1" as="geometry">
            <mxPoint x="162.93000000000006" y="714" as="sourcePoint" />
            <mxPoint x="182.03999999999996" y="714" as="targetPoint" />
            <Array as="points">
              <mxPoint x="163" y="691" />
              <mxPoint x="183" y="691" />
            </Array>
          </mxGeometry>
        </mxCell>
        <mxCell id="FTEro6uut2QmCMIrPueT-19" value="" style="curved=1;endArrow=classic;html=1;rounded=0;startArrow=classic;startFill=1;entryX=0.424;entryY=0.05;entryDx=0;entryDy=0;entryPerimeter=0;exitX=0.333;exitY=0.05;exitDx=0;exitDy=0;exitPerimeter=0;fillColor=#f8cecc;strokeColor=#b85450;" parent="1" edge="1">
          <mxGeometry width="50" height="50" relative="1" as="geometry">
            <mxPoint x="237.93000000000006" y="723" as="sourcePoint" />
            <mxPoint x="257.03999999999996" y="723" as="targetPoint" />
            <Array as="points">
              <mxPoint x="238" y="700" />
              <mxPoint x="258" y="700" />
            </Array>
          </mxGeometry>
        </mxCell>
        <mxCell id="FTEro6uut2QmCMIrPueT-21" value="" style="curved=1;endArrow=classic;html=1;rounded=0;startArrow=classic;startFill=1;entryX=0.424;entryY=0.05;entryDx=0;entryDy=0;entryPerimeter=0;exitX=0.333;exitY=0.05;exitDx=0;exitDy=0;exitPerimeter=0;fillColor=#dae8fc;strokeColor=#6c8ebf;" parent="1" edge="1">
          <mxGeometry width="50" height="50" relative="1" as="geometry">
            <mxPoint x="256.93000000000006" y="714" as="sourcePoint" />
            <mxPoint x="276.03999999999996" y="714" as="targetPoint" />
            <Array as="points">
              <mxPoint x="257" y="691" />
              <mxPoint x="277" y="691" />
            </Array>
          </mxGeometry>
        </mxCell>
        <mxCell id="FTEro6uut2QmCMIrPueT-22" value="" style="curved=1;endArrow=classic;html=1;rounded=0;startArrow=classic;startFill=1;entryX=0.424;entryY=0.05;entryDx=0;entryDy=0;entryPerimeter=0;exitX=0.333;exitY=0.05;exitDx=0;exitDy=0;exitPerimeter=0;fillColor=#e1d5e7;strokeColor=#9673a6;" parent="1" edge="1">
          <mxGeometry width="50" height="50" relative="1" as="geometry">
            <mxPoint x="237.93000000000006" y="703" as="sourcePoint" />
            <mxPoint x="257.03999999999996" y="703" as="targetPoint" />
            <Array as="points">
              <mxPoint x="238" y="680" />
              <mxPoint x="258" y="680" />
            </Array>
          </mxGeometry>
        </mxCell>
        <mxCell id="FTEro6uut2QmCMIrPueT-23" value="" style="curved=1;endArrow=classic;html=1;rounded=0;startArrow=classic;startFill=1;entryX=0.424;entryY=0.05;entryDx=0;entryDy=0;entryPerimeter=0;exitX=0.333;exitY=0.05;exitDx=0;exitDy=0;exitPerimeter=0;fillColor=#d5e8d4;strokeColor=#82b366;" parent="1" edge="1">
          <mxGeometry width="50" height="50" relative="1" as="geometry">
            <mxPoint x="143.93000000000006" y="724" as="sourcePoint" />
            <mxPoint x="163.03999999999996" y="724" as="targetPoint" />
            <Array as="points">
              <mxPoint x="144" y="701" />
              <mxPoint x="164" y="701" />
            </Array>
          </mxGeometry>
        </mxCell>
        <mxCell id="nrzJ3WGpr9i2r_ijk9tg-8" value="" style="curved=1;endArrow=classic;html=1;rounded=0;exitX=0.5;exitY=0;exitDx=0;exitDy=0;" edge="1" parent="1">
          <mxGeometry width="50" height="50" relative="1" as="geometry">
            <mxPoint x="89" y="301" as="sourcePoint" />
            <mxPoint x="320" y="80" as="targetPoint" />
            <Array as="points">
              <mxPoint x="89" y="80" />
            </Array>
          </mxGeometry>
        </mxCell>
        <mxCell id="nrzJ3WGpr9i2r_ijk9tg-9" value="" style="curved=1;endArrow=classic;html=1;rounded=0;exitX=0.5;exitY=0;exitDx=0;exitDy=0;" edge="1" parent="1">
          <mxGeometry width="50" height="50" relative="1" as="geometry">
            <mxPoint x="173" y="301" as="sourcePoint" />
            <mxPoint x="320" y="200" as="targetPoint" />
            <Array as="points">
              <mxPoint x="180" y="200" />
            </Array>
          </mxGeometry>
        </mxCell>
        <mxCell id="nrzJ3WGpr9i2r_ijk9tg-10" value="" style="curved=1;endArrow=classic;html=1;rounded=0;exitX=0.5;exitY=0;exitDx=0;exitDy=0;" edge="1" parent="1">
          <mxGeometry width="50" height="50" relative="1" as="geometry">
            <mxPoint x="90" y="301" as="sourcePoint" />
            <mxPoint x="320" y="200" as="targetPoint" />
            <Array as="points">
              <mxPoint x="90" y="200" />
            </Array>
          </mxGeometry>
        </mxCell>
        <mxCell id="nrzJ3WGpr9i2r_ijk9tg-11" value="" style="curved=1;endArrow=classic;html=1;rounded=0;exitX=0.5;exitY=0;exitDx=0;exitDy=0;" edge="1" parent="1">
          <mxGeometry width="50" height="50" relative="1" as="geometry">
            <mxPoint x="103" y="376" as="sourcePoint" />
            <mxPoint x="320" y="440" as="targetPoint" />
            <Array as="points">
              <mxPoint x="110" y="440" />
            </Array>
          </mxGeometry>
        </mxCell>
        <mxCell id="nrzJ3WGpr9i2r_ijk9tg-12" value="" style="curved=1;endArrow=classic;html=1;rounded=0;exitX=0.5;exitY=0;exitDx=0;exitDy=0;" edge="1" parent="1">
          <mxGeometry width="50" height="50" relative="1" as="geometry">
            <mxPoint x="144" y="375" as="sourcePoint" />
            <mxPoint x="320" y="440" as="targetPoint" />
            <Array as="points">
              <mxPoint x="150" y="440" />
            </Array>
          </mxGeometry>
        </mxCell>
        <mxCell id="nrzJ3WGpr9i2r_ijk9tg-13" value="0.2176" style="curved=1;endArrow=classic;html=1;rounded=0;exitX=0.5;exitY=0;exitDx=0;exitDy=0;entryX=0;entryY=0.5;entryDx=0;entryDy=0;" edge="1" parent="1" source="nrzJ3WGpr9i2r_ijk9tg-74" target="nrzJ3WGpr9i2r_ijk9tg-75">
          <mxGeometry width="50" height="50" relative="1" as="geometry">
            <mxPoint x="131" y="760" as="sourcePoint" />
            <mxPoint x="250" y="944" as="targetPoint" />
            <Array as="points">
              <mxPoint x="195" y="905" />
            </Array>
          </mxGeometry>
        </mxCell>
        <mxCell id="nrzJ3WGpr9i2r_ijk9tg-14" value="" style="curved=1;endArrow=classic;html=1;rounded=0;exitX=0.5;exitY=0;exitDx=0;exitDy=0;" edge="1" parent="1">
          <mxGeometry width="50" height="50" relative="1" as="geometry">
            <mxPoint x="75" y="376" as="sourcePoint" />
            <mxPoint x="320" y="560" as="targetPoint" />
            <Array as="points">
              <mxPoint x="80" y="560" />
            </Array>
          </mxGeometry>
        </mxCell>
        <mxCell id="nrzJ3WGpr9i2r_ijk9tg-41" value="" style="group" vertex="1" connectable="0" parent="1">
          <mxGeometry x="321" y="40" width="126" height="80" as="geometry" />
        </mxCell>
        <mxCell id="nrzJ3WGpr9i2r_ijk9tg-40" value="" style="group" vertex="1" connectable="0" parent="nrzJ3WGpr9i2r_ijk9tg-41">
          <mxGeometry width="126" height="80" as="geometry" />
        </mxCell>
        <mxCell id="nrzJ3WGpr9i2r_ijk9tg-39" value="" style="rounded=1;whiteSpace=wrap;html=1;fillColor=#fff2cc;strokeColor=#d6b656;labelPosition=right;verticalLabelPosition=bottom;align=center;verticalAlign=top;horizontal=1;spacingTop=-49;spacing=-30;fontSize=30;" vertex="1" parent="nrzJ3WGpr9i2r_ijk9tg-40">
          <mxGeometry width="110" height="80" as="geometry" />
        </mxCell>
        <mxCell id="nrzJ3WGpr9i2r_ijk9tg-38" value="&lt;font style=&quot;font-size: 30px;&quot;&gt;&amp;lt;&amp;nbsp;&amp;nbsp;&amp;nbsp; ?&lt;/font&gt;" style="whiteSpace=wrap;html=1;fillColor=none;strokeColor=none;" vertex="1" parent="nrzJ3WGpr9i2r_ijk9tg-40">
          <mxGeometry x="6" y="10" width="120" height="60" as="geometry" />
        </mxCell>
        <mxCell id="nrzJ3WGpr9i2r_ijk9tg-15" value="" style="group;fontSize=30;align=right;verticalAlign=middle;labelBackgroundColor=none;labelPosition=center;verticalLabelPosition=middle;" vertex="1" connectable="0" parent="nrzJ3WGpr9i2r_ijk9tg-41">
          <mxGeometry width="120" height="80" as="geometry" />
        </mxCell>
        <mxCell id="nrzJ3WGpr9i2r_ijk9tg-33" value="" style="rounded=0;whiteSpace=wrap;html=1;fillColor=#FFD366;" vertex="1" parent="nrzJ3WGpr9i2r_ijk9tg-15">
          <mxGeometry x="11" y="10" width="10" height="57" as="geometry" />
        </mxCell>
        <mxCell id="nrzJ3WGpr9i2r_ijk9tg-34" value="" style="rounded=0;whiteSpace=wrap;html=1;fillColor=#FF5A00;" vertex="1" parent="nrzJ3WGpr9i2r_ijk9tg-15">
          <mxGeometry x="61" y="11" width="10" height="57" as="geometry" />
        </mxCell>
        <mxCell id="nrzJ3WGpr9i2r_ijk9tg-42" value="" style="group" vertex="1" connectable="0" parent="1">
          <mxGeometry x="321" y="160" width="126" height="85" as="geometry" />
        </mxCell>
        <mxCell id="nrzJ3WGpr9i2r_ijk9tg-43" value="" style="group" vertex="1" connectable="0" parent="nrzJ3WGpr9i2r_ijk9tg-42">
          <mxGeometry width="126" height="85" as="geometry" />
        </mxCell>
        <mxCell id="nrzJ3WGpr9i2r_ijk9tg-44" value="" style="rounded=1;whiteSpace=wrap;html=1;fillColor=#fff2cc;strokeColor=#d6b656;labelPosition=right;verticalLabelPosition=bottom;align=center;verticalAlign=top;horizontal=1;spacingTop=-49;spacing=-30;fontSize=30;" vertex="1" parent="nrzJ3WGpr9i2r_ijk9tg-43">
          <mxGeometry width="110" height="80" as="geometry" />
        </mxCell>
        <mxCell id="nrzJ3WGpr9i2r_ijk9tg-45" value="&lt;font style=&quot;font-size: 30px;&quot;&gt;&amp;lt;&amp;nbsp;&amp;nbsp;&amp;nbsp; ?&lt;/font&gt;" style="whiteSpace=wrap;html=1;fillColor=none;strokeColor=none;" vertex="1" parent="nrzJ3WGpr9i2r_ijk9tg-43">
          <mxGeometry x="6" y="10" width="120" height="60" as="geometry" />
        </mxCell>
        <mxCell id="nrzJ3WGpr9i2r_ijk9tg-46" value="" style="group;fontSize=30;align=right;verticalAlign=middle;labelBackgroundColor=none;labelPosition=center;verticalLabelPosition=middle;" vertex="1" connectable="0" parent="nrzJ3WGpr9i2r_ijk9tg-43">
          <mxGeometry x="-46" width="120" height="85" as="geometry" />
        </mxCell>
        <mxCell id="nrzJ3WGpr9i2r_ijk9tg-48" value="" style="rounded=0;whiteSpace=wrap;html=1;fillColor=#FF5A00;" vertex="1" parent="nrzJ3WGpr9i2r_ijk9tg-46">
          <mxGeometry x="61" y="11" width="10" height="57" as="geometry" />
        </mxCell>
        <mxCell id="nrzJ3WGpr9i2r_ijk9tg-63" value="" style="rounded=0;whiteSpace=wrap;html=1;fillColor=#FF6700;" vertex="1" parent="nrzJ3WGpr9i2r_ijk9tg-46">
          <mxGeometry x="109" y="11" width="10" height="57" as="geometry" />
        </mxCell>
        <mxCell id="nrzJ3WGpr9i2r_ijk9tg-49" value="" style="group" vertex="1" connectable="0" parent="1">
          <mxGeometry x="321" y="400" width="126" height="80" as="geometry" />
        </mxCell>
        <mxCell id="nrzJ3WGpr9i2r_ijk9tg-50" value="" style="group" vertex="1" connectable="0" parent="nrzJ3WGpr9i2r_ijk9tg-49">
          <mxGeometry width="126" height="80" as="geometry" />
        </mxCell>
        <mxCell id="nrzJ3WGpr9i2r_ijk9tg-51" value="" style="rounded=1;whiteSpace=wrap;html=1;fillColor=#fff2cc;strokeColor=#d6b656;labelPosition=right;verticalLabelPosition=bottom;align=center;verticalAlign=top;horizontal=1;spacingTop=-49;spacing=-30;fontSize=30;" vertex="1" parent="nrzJ3WGpr9i2r_ijk9tg-50">
          <mxGeometry width="110" height="80" as="geometry" />
        </mxCell>
        <mxCell id="nrzJ3WGpr9i2r_ijk9tg-52" value="&lt;font style=&quot;font-size: 30px;&quot;&gt;&amp;lt;&amp;nbsp;&amp;nbsp;&amp;nbsp; ?&lt;/font&gt;" style="whiteSpace=wrap;html=1;fillColor=none;strokeColor=none;" vertex="1" parent="nrzJ3WGpr9i2r_ijk9tg-50">
          <mxGeometry x="6" y="10" width="120" height="60" as="geometry" />
        </mxCell>
        <mxCell id="nrzJ3WGpr9i2r_ijk9tg-64" value="" style="rounded=0;whiteSpace=wrap;html=1;fillColor=#FFDF80;" vertex="1" parent="nrzJ3WGpr9i2r_ijk9tg-50">
          <mxGeometry x="15" y="11" width="10" height="57" as="geometry" />
        </mxCell>
        <mxCell id="nrzJ3WGpr9i2r_ijk9tg-66" value="" style="rounded=0;whiteSpace=wrap;html=1;gradientColor=none;fillColor=#FFAF1A;" vertex="1" parent="nrzJ3WGpr9i2r_ijk9tg-50">
          <mxGeometry x="63" y="11" width="10" height="57" as="geometry" />
        </mxCell>
        <mxCell id="nrzJ3WGpr9i2r_ijk9tg-56" value="" style="group" vertex="1" connectable="0" parent="1">
          <mxGeometry x="321" y="520" width="126" height="85" as="geometry" />
        </mxCell>
        <mxCell id="nrzJ3WGpr9i2r_ijk9tg-57" value="" style="group" vertex="1" connectable="0" parent="nrzJ3WGpr9i2r_ijk9tg-56">
          <mxGeometry width="126" height="80" as="geometry" />
        </mxCell>
        <mxCell id="nrzJ3WGpr9i2r_ijk9tg-58" value="" style="rounded=1;whiteSpace=wrap;html=1;fillColor=#fff2cc;strokeColor=#d6b656;labelPosition=right;verticalLabelPosition=bottom;align=center;verticalAlign=top;horizontal=1;spacingTop=-49;spacing=-30;fontSize=30;" vertex="1" parent="nrzJ3WGpr9i2r_ijk9tg-57">
          <mxGeometry width="110" height="80" as="geometry" />
        </mxCell>
        <mxCell id="nrzJ3WGpr9i2r_ijk9tg-59" value="&lt;font style=&quot;font-size: 30px;&quot;&gt;&amp;lt;&amp;nbsp;&amp;nbsp;&amp;nbsp; ?&lt;/font&gt;" style="whiteSpace=wrap;html=1;fillColor=none;strokeColor=none;" vertex="1" parent="nrzJ3WGpr9i2r_ijk9tg-57">
          <mxGeometry x="6" y="10" width="120" height="60" as="geometry" />
        </mxCell>
        <mxCell id="nrzJ3WGpr9i2r_ijk9tg-60" value="" style="group;fontSize=30;align=right;verticalAlign=middle;labelBackgroundColor=none;labelPosition=center;verticalLabelPosition=middle;" vertex="1" connectable="0" parent="nrzJ3WGpr9i2r_ijk9tg-56">
          <mxGeometry width="120" height="85" as="geometry" />
        </mxCell>
        <mxCell id="nrzJ3WGpr9i2r_ijk9tg-61" value="" style="rounded=0;whiteSpace=wrap;html=1;fillColor=#FFD366;" vertex="1" parent="nrzJ3WGpr9i2r_ijk9tg-60">
          <mxGeometry x="11" y="10" width="10" height="57" as="geometry" />
        </mxCell>
        <mxCell id="nrzJ3WGpr9i2r_ijk9tg-67" value="" style="rounded=0;whiteSpace=wrap;html=1;fillColor=#FF7F00;" vertex="1" parent="nrzJ3WGpr9i2r_ijk9tg-60">
          <mxGeometry x="62" y="11" width="10" height="57" as="geometry" />
        </mxCell>
        <mxCell id="nrzJ3WGpr9i2r_ijk9tg-69" value="" style="curved=1;endArrow=classic;html=1;rounded=0;entryX=0.5;entryY=0;entryDx=0;entryDy=0;" edge="1" parent="1" target="nkOG_SdZaLz4jP4w542h-61">
          <mxGeometry width="50" height="50" relative="1" as="geometry">
            <mxPoint x="431" y="79.02631578947364" as="sourcePoint" />
            <mxPoint x="675" y="71" as="targetPoint" />
            <Array as="points">
              <mxPoint x="620" y="80" />
            </Array>
          </mxGeometry>
        </mxCell>
        <mxCell id="nrzJ3WGpr9i2r_ijk9tg-70" value="" style="curved=1;endArrow=classic;html=1;rounded=0;entryX=0.579;entryY=-0.005;entryDx=0;entryDy=0;exitX=1;exitY=0.5;exitDx=0;exitDy=0;entryPerimeter=0;" edge="1" parent="1">
          <mxGeometry width="50" height="50" relative="1" as="geometry">
            <mxPoint x="431" y="200" as="sourcePoint" />
            <mxPoint x="625.5899999999999" y="239.29999999999995" as="targetPoint" />
            <Array as="points">
              <mxPoint x="624" y="200" />
            </Array>
          </mxGeometry>
        </mxCell>
        <mxCell id="nrzJ3WGpr9i2r_ijk9tg-71" value="" style="curved=1;endArrow=classic;html=1;rounded=0;" edge="1" parent="1">
          <mxGeometry width="50" height="50" relative="1" as="geometry">
            <mxPoint x="431" y="439.02631578947364" as="sourcePoint" />
            <mxPoint x="625" y="380" as="targetPoint" />
            <Array as="points">
              <mxPoint x="620" y="440" />
            </Array>
          </mxGeometry>
        </mxCell>
        <mxCell id="nrzJ3WGpr9i2r_ijk9tg-72" value="" style="curved=1;endArrow=classic;html=1;rounded=0;entryX=0.5;entryY=1;entryDx=0;entryDy=0;exitX=1;exitY=0.5;exitDx=0;exitDy=0;" edge="1" parent="1" target="nkOG_SdZaLz4jP4w542h-61">
          <mxGeometry width="50" height="50" relative="1" as="geometry">
            <mxPoint x="431" y="560" as="sourcePoint" />
            <mxPoint x="625.5899999999999" y="599.3" as="targetPoint" />
            <Array as="points">
              <mxPoint x="624" y="560" />
            </Array>
          </mxGeometry>
        </mxCell>
        <mxCell id="nrzJ3WGpr9i2r_ijk9tg-73" value="" style="endArrow=none;dashed=1;html=1;dashPattern=1 3;strokeWidth=2;rounded=0;" edge="1" parent="1">
          <mxGeometry width="50" height="50" relative="1" as="geometry">
            <mxPoint x="375" y="363" as="sourcePoint" />
            <mxPoint x="375" y="273" as="targetPoint" />
          </mxGeometry>
        </mxCell>
        <mxCell id="nrzJ3WGpr9i2r_ijk9tg-74" value="A" style="ellipse;whiteSpace=wrap;html=1;aspect=fixed;" vertex="1" parent="1">
          <mxGeometry x="180" y="980" width="30" height="30" as="geometry" />
        </mxCell>
        <mxCell id="nrzJ3WGpr9i2r_ijk9tg-75" value="B" style="ellipse;whiteSpace=wrap;html=1;aspect=fixed;" vertex="1" parent="1">
          <mxGeometry x="265" y="890" width="30" height="30" as="geometry" />
        </mxCell>
        <mxCell id="nrzJ3WGpr9i2r_ijk9tg-76" value="C" style="ellipse;whiteSpace=wrap;html=1;aspect=fixed;" vertex="1" parent="1">
          <mxGeometry x="350" y="980" width="30" height="30" as="geometry" />
        </mxCell>
        <mxCell id="nrzJ3WGpr9i2r_ijk9tg-77" value="" style="curved=1;endArrow=classic;html=1;rounded=0;exitX=0.5;exitY=0;exitDx=0;exitDy=0;" edge="1" parent="1">
          <mxGeometry width="50" height="50" relative="1" as="geometry">
            <mxPoint x="211" y="386" as="sourcePoint" />
            <mxPoint x="330" y="570" as="targetPoint" />
            <Array as="points">
              <mxPoint x="210" y="570" />
            </Array>
          </mxGeometry>
        </mxCell>
        <mxCell id="nrzJ3WGpr9i2r_ijk9tg-79" value="0.3147" style="curved=1;endArrow=classic;html=1;rounded=0;exitX=1;exitY=0.5;exitDx=0;exitDy=0;entryX=0.5;entryY=0;entryDx=0;entryDy=0;" edge="1" parent="1" source="nrzJ3WGpr9i2r_ijk9tg-75" target="nrzJ3WGpr9i2r_ijk9tg-76">
          <mxGeometry x="0.0031" width="50" height="50" relative="1" as="geometry">
            <mxPoint x="205" y="990" as="sourcePoint" />
            <mxPoint x="275" y="915" as="targetPoint" />
            <Array as="points">
              <mxPoint x="365" y="905" />
            </Array>
            <mxPoint as="offset" />
          </mxGeometry>
        </mxCell>
        <mxCell id="nrzJ3WGpr9i2r_ijk9tg-80" value="&lt;font color=&quot;#82b366&quot;&gt;0.5323&lt;/font&gt;" style="curved=1;endArrow=none;html=1;rounded=0;exitX=0;exitY=1;exitDx=0;exitDy=0;entryX=1;entryY=1;entryDx=0;entryDy=0;endFill=0;startArrow=classic;startFill=1;fillColor=#d5e8d4;strokeColor=#82b366;" edge="1" parent="1" source="nrzJ3WGpr9i2r_ijk9tg-76" target="nrzJ3WGpr9i2r_ijk9tg-74">
          <mxGeometry x="-0.0003" width="50" height="50" relative="1" as="geometry">
            <mxPoint x="305" y="915" as="sourcePoint" />
            <mxPoint x="375" y="990" as="targetPoint" />
            <Array as="points">
              <mxPoint x="280" y="1070" />
            </Array>
            <mxPoint as="offset" />
          </mxGeometry>
        </mxCell>
      </root>
    </mxGraphModel>
  </diagram>
</mxfile>
